<?xml version="1.0" encoding="utf-8"?>
<!-- Generator: Adobe Illustrator 16.0.0, SVG Export Plug-In . SVG Version: 6.00 Build 0)  -->
<!DOCTYPE svg PUBLIC "-//W3C//DTD SVG 1.1//EN" "http://www.w3.org/Graphics/SVG/1.1/DTD/svg11.dtd">
<svg version="1.1" xmlns="http://www.w3.org/2000/svg" xmlns:xlink="http://www.w3.org/1999/xlink" x="0px" y="0px"
	 width="841.89px" height="1190.55px" viewBox="0 0 841.89 1190.55" enable-background="new 0 0 841.89 1190.55"
	 xml:space="preserve">
<g id="Layer_1" display="none">
	<g id="Layer_1_2_" display="inline">
		<g id="Layer_1_1_">
			<g>
				<g>
					<path fill="#FBE0C6" d="M424.636,1009.521h366.453c0,0-4.162-93.293-61.414-155.713
						c-57.281-62.422-305.039-81.596-305.039-81.596s-258.26,21.271-315.513,83.691s-50.967,153.607-50.967,153.607h366.48V1009.521
						z"/>
					<path fill="#FBE0C6" d="M424.636,647.343c54.791,0,126.738,11.215,126.738,11.215v202.33c0,0-22.85,37.471-126.738,38.717
						c-103.917-1.246-126.737-38.717-126.737-38.717v-202.33C297.899,658.558,369.819,647.343,424.636,647.343"/>
					<path fill="#F7CEB1" d="M424.636,647.343c54.791,0,126.738,5.551,126.738,5.551v62.678c0,0-22.85,89.41-126.738,90.035
						c-103.917-0.625-126.737-90.035-126.737-90.035v-62.678C297.899,652.894,369.819,647.343,424.636,647.343"/>
					<path fill="#E5BDA1" d="M425.685,801.837c23.303-2.859,31.627-32.115,31.627-32.115s-10.844,23.309-32.053,23.309h0.426
						c-21.236,0-32.053-23.309-32.053-23.309s8.325,29.256,31.627,32.115"/>
					<path fill="#E9D4A1" d="M96.551,855.904c-28.315,49.166-38.395,156.109-38.395,156.109h732.934
						c0,0-10.561-111.645-50.938-156.109c-40.406-44.465-169.211-49.336-169.211-49.336l-146.305,80.547l-142.225-81.51
						C282.411,805.605,124.866,806.738,96.551,855.904"/>
					<path fill="#FFFFFF" d="M423.703,1012.013h0.934H423.703L423.703,1012.013z M424.58,879.638h-0.85L297.899,757.232v44.746
						l28.711,210.035h98.026h97.064l28.73-210.035v-44.746L424.58,879.638L424.58,879.638z"/>
					<polyline fill="#EEE7DE" points="424.779,916.683 523.994,954.578 424.156,879.638 424.779,879.638 324.939,954.578 
						424.156,916.683 					"/>
					<polygon fill="#E0C895" points="260.75,811.779 189.792,898.359 242.968,928.324 193.02,994.115 201.741,1012.013 
						340.343,1012.013 287.904,807.191 					"/>
					<polygon id="Left_Suit_Collar" fill="#E9D4A1" points="250.783,813.025 196.05,890.882 251.688,905.865 201.741,984.117 
						222.977,1012.013 349.092,1012.013 297.899,757.232 					"/>
					<polygon fill="#E0C895" points="509.894,1012.013 649.742,1012.013 657.244,994.115 607.296,925.832 657.953,898.359 
						601.974,824.269 562.333,807.191 					"/>
					<polygon id="Right_Suit_Collar" fill="#E9D4A1" points="500.804,1012.013 628.166,1012.013 648.156,984.117 598.208,905.865 
						653.875,890.882 599.142,813.025 551.998,757.232 					"/>
					<path id="Tie" fill="#9CA162" d="M424.099,1012.013h1.16H424.099L424.099,1012.013z M424.132,879.65l-32.51,24.967
						l18.971,32.457l-10.93,74.939h25.596h24.438l-10.959-74.939l18.973-32.457L424.132,879.65z"/>
				</g>
				<path id="Mouth_Background" fill="#996766" d="M358.409,544.394c20.104-0.425,45.133-0.312,63.338-0.17
					c17.527-0.023,49.387-0.227,69.207-0.278c19.82-0.028,19.113,74.822,12.119,84.253c-6.994,9.43-51.65,9.146-81.834,9.43
					c-24.979-0.311-67.501,1.586-72.343-8.27C344.054,619.474,338.306,544.819,358.409,544.394z"/>
				<path id="Left_Tongue" fill="#B35133" d="M371.008,600.583c2.463-3.822,3.992-2.973,9.372-4.219
					c5.408-1.218,14.639-1.733,21.521-1.648c6.88,0.113,11.977,0,19.792,2.865c7.785,2.889,8.238,9.488,12.43,13.197
					c-12.318,0.277-24.861,0.34-37.626-0.537C383.693,609.335,369.309,609.279,371.008,600.583"/>
				<path id="Right_Tongue" fill="#BD5F4F" d="M433.896,610.751c0-0.227-1.613-2.152-4.559-5.977
					c-2.973-3.803-5.381-5.068-8.211-7.396h0.198c0,0,10.109-2.292,15.83-2.773c2.207-0.197,3.17-0.229,7.785-0.229
					c4.445,0,5.691,0.028,8.184,0.229c9.117,0.817,12.686,1.613,19.623,3.736c4.049,1.586,3.17,5.693-1.586,8.752
					c-4.73,3.064-13.592,2.016-21.945,2.809c-2.887,0.256-7.928,0.623-11.891,0.793
					C434.009,610.865,433.896,610.865,433.896,610.751"/>
				<path id="Bottom_Teeth" fill="#FFFFFF" d="M359.994,617.125c-1.729,0.793-1.416-3.711-0.906-5.184
					c0.765-2.182,4.898-2.406,7.985-2.549c1.728-0.086,5.295,0.057,5.267,1.273c-0.057,1.219-2.435-1.133,3.03-2.832
					c5.38-1.672,14.809-2.889,20.755-0.594c2.067,0.793,2.803,2.063,3.171,4.188s-4.445-3.059,3.851-4.588
					c3.938-0.707,14.021-1.357,18.632-0.197c6.795,1.73,3.992,3.711,4.219,4.785c0.34,1.477-3.568-2.293,1.076-3.795
					c6.256-2.01,16.055-2.123,23.188-0.197c3.521,0.965,2.152,6.885,2.125,4.105c-0.02-2.355-0.227-3.086,1.396-3.908
					c5.063-2.576,13.563-1.727,19.338,0.113c1.67,0.51,3.086,1.756,3.455,2.805c0.273,0.82-2.832-0.227,2.482-0.596
					c1.85-0.113,9.373,0.73,9.855,2.182c0.623,1.896,1.133,4.928-0.369,4.898c-8.014-0.113-25.822-0.084-30.211-0.063
					c-22.086,0-43.663,0-68.094,0C381.003,616.982,363.986,617.068,359.994,617.125"/>
				<path id="Top_Teeth" fill="#FFFFFF" d="M360.588,581.099c-1.699-1.104-1.388,5.325-0.906,7.396
					c0.77,3.144,4.847,3.427,7.9,3.649c1.699,0.113,5.21-0.057,5.153-1.813c-0.028-1.756-2.378,1.586,3.025,4.021
					c5.295,2.375,14.644,3.851,20.443,0.851c2.208-1.161,2.774-2.945,3.115-5.979c0.366-3.025-4.983,5.778,3.196,7.933
					c3.854,1.02,13.986,2.316,18.574,0.646c6.654-2.462,4.332-7.021,4.56-8.583c0.34-2.096-3.938,5.018,0.623,7.167
					c6.172,2.859,15.855,2.322,22.877-0.426c3.455-1.357,2.521-10.844,2.492-6.879c0,3.342-0.367,4.362,1.389,5.551
					c4.955,3.315,13.449,2.292,19.084-0.142c1.727-0.77,3.029-2.492,3.396-4.021c0.283-1.161-2.803,0.342,2.465,0.854
					c1.813,0.17,9.229-1.048,9.684-3.116c0.623-2.69,1.133-7.024-0.34-6.967c-7.93,0.17-25.455,0.108-29.787,0.108
					c-21.775-0.023-43.04-0.057-67.131-0.023C381.287,581.325,364.524,581.184,360.588,581.099"/>
				<path id="Left_Ear" fill="#F7CEB1" d="M273.491,501.77c6.145,36.365-5.663,68.709-26.418,72.226
					c-20.727,3.512-42.529-23.144-48.673-59.504c-6.173-36.396,5.663-68.737,26.39-72.249
					C245.516,438.726,267.318,465.376,273.491,501.77z"/>
				<path id="Right_Ear" fill="#F7CEB1" d="M579.689,501.77c-6.172,36.365,5.662,68.709,26.391,72.226
					c20.754,3.512,42.557-23.144,48.701-59.504c6.174-36.396-5.662-68.737-26.391-72.249
					C607.636,438.726,585.833,465.376,579.689,501.77z"/>
				<rect id="Eye_White" x="257.99" y="373.359" fill="#FFFFFF" width="336.779" height="127.73"/>
				<path id="Lefy_Eyeball" fill="#3A3734" d="M351.697,435.667c0,7.76-6.286,14.048-14.044,14.048
					c-7.764,0-14.044-6.288-14.044-14.048s6.281-14.076,14.044-14.076C345.412,421.591,351.697,427.907,351.697,435.667z"/>
				<path id="Right_Eyeball" fill="#3A3734" d="M523.484,435.667c0,7.477-6.061,13.538-13.533,13.538
					c-7.477,0-13.535-6.063-13.535-13.538s6.059-13.538,13.535-13.538C517.425,422.129,523.484,428.19,523.484,435.667z"/>
				<path id="Head_Base_1_" fill="#FBE0C6" d="M573.32,270.835c-50.459-68.709-146.105-62.45-146.105-62.45
					s-95.644-6.259-146.075,62.45c-0.396,0.51-56.177,53.698-44.964,181.089c0,0-6.229,122.378,13.733,184.828
					c0,0,24.974,51.205,108.645,91.168c0,0,25.738,26.939,68.667,27.471c42.924-0.529,68.691-27.471,68.691-27.471
					c83.643-39.963,106.125-91.168,106.125-91.168c19.961-62.45,16.225-184.828,16.225-184.828
					C629.496,324.533,573.687,271.345,573.32,270.835 M298.606,451.103c35.422-48.313,75.771-18.32,75.771-18.32
					C329.414,457.758,298.606,451.103,298.606,451.103z M426.591,609.279c-52.213-1.246-84.667-22.794-84.667-22.794
					s18.976,9.681,66.115,3.767c0,0,8.325-1.247,18.543,2.181c10.221-3.427,18.574-2.181,18.574-2.181
					c42.756,5.381,62.35-2.096,65.605-3.512C477.388,608.289,426.591,609.279,426.591,609.279z M473.423,432.778
					c0,0,40.32-29.993,75.742,18.319C549.166,451.103,518.359,457.758,473.423,432.778z"/>
				<path id="Left_Cheek_Shadow" fill="#F7CEB1" d="M234.671,478.064c0,0-0.765,71.257,46.465,101.335
					c0,0,27.461,10.106,42.897,46.645c10.533,24.951,0.792,41.945,35.762,101.873c0,0-62.576-22.459-111.136-91.168
					C248.659,636.751,234.671,574.302,234.671,478.064z"/>
				<path id="Right_Cheek_Shadow" fill="#F7CEB1" d="M618.962,479.311c0,0,0.766,71.286-46.465,101.363
					c0,0-27.465,10.083-42.896,46.619c-10.563,24.98-0.82,40.697-35.762,100.627c0,0,70.107-28.719,109.438-91.168
					C603.277,636.751,618.962,572.489,618.962,479.311z"/>
				<path id="Under_Lip_Shadow" fill="#F7CEB1" d="M426.591,642.16c18.518,0,32.703,6.26,32.703,6.26
					c-0.51-14.16-5.748-30.814-5.748-30.814s-15.404,3.352-27.891,3.352c-12.485,0-27.577-3.352-27.577-3.352
					s-5.21,16.654-5.719,30.814C392.361,648.419,408.075,642.16,426.591,642.16z"/>
				<path id="Eyebrow-Nose_Shadow" fill="#F7CEB1" d="M423.724,553.658c-50.569,0-20.946-76.191-20.946-76.191
					c11.236-56.188-21.438-44.125-21.438-44.125l-35.337-12.04c0,0,11.524-12.83,39.813-9.823c0,0,15.262,3.966,21.633,1.157
					c5.943-2.604,7.249-10.083,11.689-10.083h8.611c4.248,0,5.604,6.854,11.438,9.351c8.605,3.71,22.535-0.623,22.535-0.623
					c33.441-2.186,40.293,8.893,40.293,8.893l-30.043,12.04c0,0-37.631-10.933-26.389,45.258
					C445.583,477.47,477.636,553.658,423.724,553.658z"/>
				<path id="Nose_Main" fill="#F7CEB1" d="M424.929,457.475c11.07,0,21.283,21.271,21.283,21.271
					c4.531,12.941,23.473,47.127,23.473,47.127c6.004,16.54-17.949,21.723-17.949,21.723s-11.496,2.294-16.764,7.505
					c0,0-3.482,3.97-10.506,3.568c-7.021,0.396-10.504-3.568-10.504-3.568c-5.267-5.211-16.762-7.505-16.762-7.505
					s-23.955-5.183-17.98-21.723c0,0,18.976-34.184,23.501-47.127C402.721,478.746,413.856,457.475,424.929,457.475z"/>
				<path id="Nose_Under_Shadow" fill="#E5BDA1" d="M470.638,531.564c-0.564,12.063-18.914,16.025-18.914,16.025
					s-11.496,2.294-16.791,7.505c0,0-3.453,3.97-10.477,3.568c-7.05,0.396-10.505-3.568-10.505-3.568
					c-5.295-5.211-16.762-7.505-16.762-7.505s-18.349-3.965-18.915-16.025h46.002H470.638z"/>
				<path id="Nose_Bridge_Shadow" fill="#F7CEB1" d="M447.828,499.957c2.52,14.359,6.965,26.651,3.992,35.374
					c-4.078,11.923-20.359,19.57-27.439,19.57c-7.102,0-24.662-7.647-28.708-19.57c-2.973-8.723,2.378-22.884,5.271-35.374
					c6.313-27.557,11.185-51.206,23.444-51.206C436.642,448.751,442.929,472.117,447.828,499.957"/>
				<path id="Nose_Bridge_Highlight" fill="#FBE0C6" d="M394.935,531.819c-0.935-8.728,3.482-20.935,6.003-31.862
					c6.313-27.557,11.188-51.206,23.445-51.206c12.26,0,18.547,23.366,23.445,51.206c2.18,12.405,5.775,23.281,4.813,31.607
					l-29.193,0.128L394.935,531.819z"/>
				<path id="Right_Nose_Hole" fill="#444444" d="M456.916,544.507c0.113,0.708-3.879,1.926-8.891,2.662
					c-5.039,0.736-9.203,0.765-9.316,0.028c-0.113-0.708,3.881-1.897,8.92-2.662C452.64,543.799,456.802,543.771,456.916,544.507z"
					/>
				<path id="Left_Nose_Hole" fill="#444444" d="M392.527,545.017c-0.113,0.736,3.879,1.931,8.891,2.662
					c5.04,0.77,9.203,0.77,9.316,0.062c0.084-0.736-3.879-1.93-8.919-2.69C396.775,544.309,392.612,544.281,392.527,545.017z"/>
				<path id="Left_Eyelash" fill="#5B4635" d="M374.377,432.778c0,0-39.979-34.558-75.771,18.319
					C298.606,451.103,328.592,404.457,374.377,432.778z"/>
				<path id="Right_Eyelash" fill="#5B4635" d="M474.019,432.863c0,0,39.951-34.558,75.742,18.324
					C549.761,451.188,519.804,404.57,474.019,432.863z"/>
				<path id="Right_Under_Eye_Shadow" fill="#F7CEB1" d="M541.55,458.154c0,0-29.137,10.847-65.775-10.819
					C475.773,447.335,507.826,485.655,541.55,458.154z"/>
				<path id="Left_Under_Eye_Shadow" fill="#F7CEB1" d="M306.11,458.154c0,0,29.136,10.847,65.747-10.819
					C371.857,447.335,339.805,485.655,306.11,458.154z"/>
				<path id="Middle_Mouth_Piece" fill="none" stroke="#E5BDA1" stroke-width="2.9738" stroke-miterlimit="10" d="M511.281,586.48
					c0,0-18.973,9.685-66.115,3.767c0,0-8.354-1.247-18.574,2.181c-10.218-3.427-18.543-2.181-18.543-2.181
					c-47.144,5.918-66.115-3.767-66.115-3.767"/>
				<path id="Left_Mouth_Piece" fill="none" stroke="#E5BDA1" stroke-width="2.9738" stroke-miterlimit="10" d="M346.289,578.068
					c0,0-5.833,14.354-10.222,19.343"/>
				<path id="Right_Mouth_Piece" fill="none" stroke="#E5BDA1" stroke-width="2.9738" stroke-miterlimit="10" d="M506.892,578.068
					c0,0,5.861,14.354,10.223,19.343"/>
				<path id="Left_Eyebrow" fill="#5B4635" d="M386.128,412.528l6.767-17.475c0,0-7.588-11.668-11.75-11.668
					c0,0-74.322,17.899-91.996,27.5l-15.403,19.542C273.746,430.428,333.944,411.707,386.128,412.528z"/>
				<path id="Right_Eyebrow" fill="#5B4635" d="M461.927,412.528l-6.738-17.475c0,0,7.561-11.668,11.723-11.668
					c0,0,74.328,17.899,91.996,27.5l15.402,19.542C574.31,430.428,514.113,411.707,461.927,412.528z"/>
				<path id="Hair_Front" fill="#5B4635" d="M276.833,252.086c-3.256,3.512-9.004,13.311-12.232,16.823
					c0,0-7.079,14.982-30.637,56.219c0,0-7.107,18.494-17.215,37.866c0,0,7.164,73.07,7.333,88.562c0,0,11.581,1.048,11.128,0.906
					c0,0,0,64.998,2.152,118.785l10.335-6.033c0,0-5.238-37.271-5.975-96.464c0,0,3.964-25.744,11.638-47.467
					c0,0-7.475-83.662,20.387-111.162c0,0,47.881-54.521,99.896-47.864c0,0,11.241,14.784,61.896,28.775
					c40.633,11.243,79.48,9.119,110.797,25.631c0,0,2.209-4.276-0.99-19.032c0,0,15.998,20.618,15.375,24.356
					c0,0,5.02-12.49,2.521-18.72l17.67,12.688c0,0,24.576,79.527,18.744,109.493c0,0,18.121,35.798,4.559,139.145l10.166,6.656
					c0,0,0.736-71.456,4.672-119.461c0,0,3.23-1.869,8.607-0.229c0,0,1.756-69.417,5.688-88.562c0,0-11.213-55.482-37.348-94.17
					c-5.408-7.958-23.387-16.483-28.824-22.402c0,0-0.057-5.919-2.096-9.884l-3.029-7.59c-9.854,9.573-10.674-5.409-10.674-5.409
					c3.146-10.819,0.566-7.505,0.566-7.505c-5.691,4.163-28.969-5.098-28.969-5.098c-9.768-4.532-38.168-23.422-50.258-26.113
					c0,0-5.521,7.505-17.527,6.656c0,0-30.354-11.641-37.432-11.641c0,0-57.423,12.49-78.229,24.13c0,0-8.325,9.998-14.158,2.492
					c0,0-4.53,5.211-17.3,19.061c0,0-9.542,0.935-10.167-11.13c0,0-6.258,21.213-4.587,26.226c0,0-9.995-3.342-14.157-4.163
					L276.833,252.086z"/>
			</g>
		</g>
	</g>
</g>
<g id="Dariusz">
	<g id="Body">
		<path fill="#F9E3C7" d="M427.259,1012.013h369.025c0,0-14.6-150.311-57.444-174.274c0,0-119.396-54.964-311.62-57.964
			c-192.225,3-311.62,57.964-311.62,57.964c-42.845,23.964-57.444,174.274-57.444,174.274H427.259z"/>
	</g>
	<g id="Neck">
		<path fill="#F9E3C7" d="M425.379,550.249c113.935,0.652,131.092,54.582,131.092,54.582v265.098c0,0-42.986,60.847-131.345,60.847
			c-88.358,0-131.682-60.847-131.682-60.847V604.831C293.445,604.831,311.445,550.901,425.379,550.249z"/>
	</g>
	<g id="NeckSHadow">
		<path fill="#F4D1B0" d="M425.379,550.249c113.935,0.652,131.092,54.582,131.092,54.582v149.098c0,0-42.986,76.847-131.345,76.847
			c-88.358,0-131.682-76.847-131.682-76.847V604.831C293.445,604.831,311.445,550.901,425.379,550.249z"/>
	</g>
	<g id="Shirt">
		<path fill="#101011" d="M583.689,794.375c0,0-26.958,86.393-157.032,87.393l-0.286,0.007
			c-130.074-1-157.925-86.993-157.925-86.993C171.524,811.994,115.6,837.739,115.6,837.739
			c-42.845,23.964-57.444,174.274-57.444,174.274h369.104h369.025c0,0-14.6-150.311-57.444-174.274
			C738.84,837.739,682.029,811.585,583.689,794.375z"/>
	</g>
	<g id="ShirtDesign">
		<text transform="matrix(1 0 0 1 295.4756 1055.2163)" fill="#FFFFFF" font-family="'Aharoni-Bold'" font-size="131.9562">M </text>
		<polygon fill="#6FB1DD" points="298.637,1012.234 284.444,1012.238 292.439,966.792 306.632,966.789 		"/>
		<text transform="matrix(1 0 0 1 387.0952 1055.2378)" fill="#FFFFFF" font-family="'Aharoni-Bold'" font-size="131.9562">A</text>
		<text transform="matrix(1 0 0 1 459.4702 1055.2153)" fill="#FFFFFF" font-family="'Aharoni-Bold'" font-size="131.9562">TE</text>
	</g>
	<g id="Ears">
		
			<ellipse transform="matrix(0.9879 -0.1548 0.1548 0.9879 -75.9398 42.4603)" fill="#F4D1B0" cx="234.604" cy="508.726" rx="43.84" ry="65.014"/>
		
			<ellipse transform="matrix(-0.9879 -0.1548 0.1548 -0.9879 1151.6382 1107.1511)" fill="#F4D1B0" cx="618.936" cy="508.726" rx="43.84" ry="65.014"/>
	</g>
	<g id="Eyes_White">
		<rect x="255.057" y="348.105" fill="#FFFFFF" width="336.388" height="160.621"/>
	</g>
	<g id="Eyes">
		<circle fill="#6E95B7" cx="337.052" cy="436.986" r="17.789"/>
		<circle fill="#6E95B7" cx="510.052" cy="436.986" r="17.789"/>
	</g>
	<g id="Mouth_Inside">
		<path id="Mouth_Background_1_" fill="#996766" d="M355.405,545.882c20.77-0.425,46.63-0.312,65.439-0.17
			c18.108-0.023,51.024-0.227,71.503-0.278c20.477-0.028,19.747,74.822,12.521,84.253c-7.227,9.43-53.363,9.146-84.548,9.43
			c-25.807-0.311-69.74,1.586-74.743-8.27C340.573,620.962,334.634,546.308,355.405,545.882z"/>
		<path id="Left_Tongue_1_" fill="#B35133" d="M368.421,602.072c2.544-3.822,4.125-2.973,9.683-4.219
			c5.588-1.219,15.124-1.732,22.235-1.648c7.108,0.113,12.374,0,20.448,2.865c8.043,2.889,8.512,9.488,12.842,13.197
			c-12.727,0.277-25.686,0.34-38.875-0.537C381.527,610.824,366.666,610.767,368.421,602.072"/>
		<path id="Right_Tongue_1_" fill="#BD5F4F" d="M433.395,612.24c0-0.227-1.667-2.152-4.709-5.977
			c-3.071-3.803-5.56-5.068-8.484-7.396h0.205c0,0,10.443-2.293,16.354-2.773c2.28-0.197,3.275-0.229,8.043-0.229
			c4.593,0,5.881,0.027,8.455,0.229c9.42,0.818,13.106,1.613,20.273,3.736c4.184,1.586,3.276,5.693-1.638,8.752
			c-4.888,3.064-14.043,2.016-22.673,2.809c-2.982,0.256-8.191,0.623-12.285,0.793C433.512,612.353,433.395,612.353,433.395,612.24"
			/>
		<path id="Bottom_Teeth_1_" fill="#FFFFFF" d="M357.042,618.613c-1.787,0.793-1.463-3.711-0.937-5.184
			c0.79-2.182,5.061-2.406,8.25-2.549c1.785-0.086,5.471,0.057,5.441,1.273c-0.059,1.219-2.515-1.133,3.131-2.832
			c5.558-1.672,15.3-2.889,21.443-0.594c2.136,0.793,2.896,2.063,3.276,4.188c0.38,2.125-4.593-3.059,3.978-4.588
			c4.069-0.707,14.486-1.357,19.25-0.197c7.02,1.73,4.125,3.711,4.359,4.785c0.351,1.477-3.687-2.293,1.112-3.795
			c6.463-2.01,16.587-2.123,23.956-0.197c3.639,0.965,2.224,6.885,2.196,4.105c-0.021-2.355-0.234-3.086,1.442-3.908
			c5.229-2.576,14.012-1.727,19.979,0.113c1.725,0.51,3.188,1.756,3.569,2.805c0.282,0.82-2.926-0.227,2.565-0.596
			c1.91-0.113,9.684,0.73,10.182,2.182c0.644,1.896,1.171,4.928-0.381,4.898c-8.279-0.113-26.68-0.084-31.213-0.063
			c-22.819,0-45.112,0-70.354,0C378.748,618.47,361.167,618.556,357.042,618.613"/>
		<path id="Top_Teeth_1_" fill="#FFFFFF" d="M357.655,582.587c-1.755-1.104-1.433,5.325-0.936,7.396
			c0.795,3.143,5.007,3.426,8.162,3.649c1.755,0.113,5.383-0.057,5.324-1.813c-0.029-1.755-2.457,1.586,3.126,4.021
			c5.47,2.375,15.129,3.852,21.122,0.852c2.281-1.162,2.866-2.945,3.218-5.98c0.378-3.025-5.149,5.779,3.302,7.933
			c3.982,1.02,14.45,2.316,19.19,0.646c6.875-2.463,4.475-7.021,4.711-8.583c0.352-2.096-4.068,5.017,0.644,7.167
			c6.377,2.859,16.382,2.322,23.637-0.426c3.568-1.357,2.604-10.844,2.575-6.879c0,3.342-0.38,4.362,1.434,5.551
			c5.119,3.314,13.896,2.291,19.717-0.143c1.784-0.77,3.13-2.492,3.51-4.021c0.293-1.161-2.896,0.342,2.547,0.855
			c1.873,0.17,9.534-1.048,10.004-3.117c0.645-2.69,1.171-7.024-0.351-6.967c-8.192,0.17-26.3,0.108-30.774,0.108
			c-22.498-0.023-44.468-0.057-69.359-0.023C379.042,582.813,361.723,582.672,357.655,582.587"/>
	</g>
	<g id="Head">
		<path fill="#F9E3C7" d="M595.373,304.571c-53.822-88.07-169.324-82.188-169.324-82.188s-108.799-6.877-167.981,82.188
			c0,0-46.623,61.204-26.893,185.353c0,0,4.495,77.851,27.815,157.419c0,0,25.455,33.432,98.867,76.087
			c0,0,31.883,22.36,68.363,18.96c35.97,4.388,68.363-18.96,68.363-18.96c73.412-42.655,98.867-76.087,98.867-76.087
			c23.32-79.568,27.814-157.419,27.814-157.419C638.445,362.775,595.373,304.571,595.373,304.571z M297.232,448.715
			c6.612-10.036,13.878-15.933,13.878-15.933c38.93-10.653,44.685-7.01,44.685-7.01c6.85,1.997,18.582,15.01,18.582,15.01
			c-14.582,8.933-44.521,9.933-44.521,9.933C317.445,450.715,297.232,448.715,297.232,448.715z M424.472,614.275
			c-55.973,0-83.294-20.076-83.294-20.076s29.692-7.923,68.318-10.424c0,0,9.976-0.105,15.462,1.697
			c5.486-1.803,15.416-1.697,15.416-1.697c38.015,2.42,68.318,10.424,68.318,10.424S480.445,614.275,424.472,614.275z
			 M517.145,450.715c0,0-29.938-1-44.521-9.932c0,0,11.731-13.013,18.582-15.01c0,0,5.754-3.643,44.684,7.01
			c0,0,7.267,5.897,13.879,15.932C549.769,448.715,529.556,450.715,517.145,450.715z"/>
	</g>
	<g id="Nose_Behind">
		<path fill="#F4D1B0" d="M423.748,544.224c28.035-6.021,37.281-23.115,37.281-23.115c-13.323-18.667-20.354-63.396-20.354-63.396
			c0.321-40.063,31.747-16.93,31.747-16.93c10.877-10.355,40.198-33.229,40.198-33.229c-21.931-2.617-36.267-3.444-59.454,9.556
			c-11.211,6.286-20.012-11.203-20.012-11.203c-3.836-4.29-9.365-3.353-9.365-3.353s-6.308-0.937-10.144,3.353
			c0,0-8.801,17.488-20.013,11.203c-23.187-13-37.523-12.173-59.454-9.556c0,0,29.321,22.874,40.199,33.229
			c0,0,31.425-23.134,31.747,16.93c0,0-7.031,44.729-20.355,63.396C385.769,521.108,397.274,538.783,423.748,544.224z"/>
	</g>
	<g id="Eye_Bags">
		<path fill="#F4D1B0" d="M373.445,448.275c0,0-26.248,17.217-73,12.5C300.445,460.775,333.179,483.774,373.445,448.275z"/>
		<path fill="#F4D1B0" d="M473.445,448.275c0,0,26.248,17.217,73,12.5C546.445,460.775,513.71,483.774,473.445,448.275z"/>
	</g>
	<g id="Eyelash">
		<path fill="#5B380F" d="M374.377,440.782c0,0-12.732-10.263-18.582-14.01c0,0-6.019-3.232-43.685,7.01
			c0,0-9.335,6.531-14.878,14.933c0,0,4.712-7.773,13.462-16.606c0,0,17.791-6.833,44.146-8.333
			C354.84,423.775,363.059,429.04,374.377,440.782z"/>
		<path fill="#5B380F" d="M472.804,440.782c0,0,12.732-10.263,18.582-14.01c0,0,6.02-3.232,43.686,7.01
			c0,0,9.334,6.531,14.877,14.933c0,0-4.713-7.773-13.463-16.606c0,0-17.791-6.833-44.145-8.333
			C492.341,423.775,484.123,429.04,472.804,440.782z"/>
	</g>
	<g id="Nose_Bottom">
		<path fill="#F4D1B0" d="M423.38,482.775c9.064,0,17.677,4.667,17.677,4.667c28.333,26,26.837,38.123,26.837,38.123
			s-0.555,13.244-16.526,12.915c0,0-11.286,1.373-19.101,7.179c0,0-2.951,3.282-8.887,3.243c-5.936,0.039-9.479-3.243-9.479-3.243
			c-7.813-5.806-19.1-7.179-19.1-7.179c-15.972,0.329-16.527-12.915-16.527-12.915s-1.496-12.123,26.837-38.123
			C405.112,487.441,414.316,482.775,423.38,482.775z"/>
	</g>
	<g id="Nose_Bottom_Shadow">
		<path fill="#DDB99B" d="M467.894,525.564c0,0-0.555,13.244-16.526,12.915c0,0-11.286,1.373-19.101,7.179
			c0,0-2.951,3.282-8.887,3.243c-5.936,0.039-9.479-3.243-9.479-3.243c-7.813-5.806-19.1-7.179-19.1-7.179
			c-15.972,0.329-16.527-12.915-16.527-12.915H467.894z"/>
	</g>
	<g id="Nose_Top">
		<path fill="#F9E3C7" d="M423.167,538.442c26.931-1.527,25.119-24.876,25.119-24.876c-1.606-6.601-12.68-61.518-12.68-61.518
			c-5.06-20.288-11.754-20.94-11.754-20.94s-7.306,0.652-12.64,20.94c0,0-11.074,54.917-12.68,61.518
			C398.534,513.566,396.237,536.915,423.167,538.442z"/>
	</g>
	<g id="Nose_Top_Shadow">
		<path fill="#F4D1B0" d="M400.814,525.564c0,0,4.922,12.877,22.353,12.877c16.446,0.504,22.777-13,22.777-13"/>
	</g>
	<g id="Lip_Outline">
		<path fill="none" stroke="#D6AB8E" stroke-width="3" stroke-miterlimit="10" d="M508.739,594.199c0,0-69.961-15.696-83.78-8.727
			c-13.819-6.97-83.78,8.727-83.78,8.727"/>
		<path fill="none" stroke="#D6AB8E" stroke-width="3" stroke-miterlimit="10" d="M342.642,583.571
			c-0.069,1.638-0.781,13.299-3.402,19.404"/>
		<path fill="none" stroke="#D6AB8E" stroke-width="3" stroke-miterlimit="10" d="M506.642,583.57
			c0.068,1.638,0.781,13.298,3.402,19.404"/>
	</g>
	<g id="Adams_Apple">
		<path fill="#DDB99B" d="M427.433,803.753c23.303-2.859,31.627-32.115,31.627-32.115s-10.844,23.309-32.053,23.309h0.426
			c-21.236,0-32.053-23.309-32.053-23.309s8.324,29.256,31.627,32.115"/>
	</g>
	<g id="Cheek_Shadow">
		<path opacity="0.4" fill="#F4D1B0" d="M232.604,508.726c0,0,26.112,44.716,46.476,52.716c0,0,25.698,16.351,32.364,51.009
			c0,0,10.825,71.968,46.413,110.979c0,0-83.746-48.988-98.867-76.087C258.99,647.343,240.445,583.688,232.604,508.726z"/>
		<path opacity="0.4" fill="#F4D1B0" d="M620.097,508.726c0,0-26.111,44.716-46.476,52.716c0,0-25.698,16.351-32.364,51.009
			c0,0-10.825,71.968-46.412,110.979c0,0,83.746-48.988,98.866-76.087C593.711,647.343,612.257,583.688,620.097,508.726z"/>
	</g>
	<g id="Cleft_Shadow">
		<path opacity="0.4" fill="#F4D1B0" d="M426.127,728.43h9.534c1.334,11.988,10.959,13.744,10.959,13.744s-11.842,1.498-20.4,0.216
			c-8.559,1.282-20.4-0.566-20.4-0.566s9.625-1.405,10.958-13.394H426.127z"/>
	</g>
	<g id="Eyebrows">
		<path fill="#704812" d="M303.11,406.906c-5.649,0.503-30.666,6.121-30.666,6.121s13.763-16.585,29.666-25.751
			c0,0,60.97,7,82.152,11.5c0,0,3.841,9.003,2.012,14.251C386.274,413.026,313.272,406,303.11,406.906z"/>
		<path fill="#704812" d="M546.266,406.906c5.649,0.503,30.665,6.121,30.665,6.121s-13.764-16.586-29.665-25.752
			c0,0-60.97,7-82.153,11.5c0,0-3.84,9.003-2.012,14.252C463.101,413.027,536.104,406,546.266,406.906z"/>
	</g>
	<g id="Lip_Under_Shadow">
		<path fill="#F4D1B0" d="M424.935,627.775c20.01,0,32.028-3.317,32.028-3.317s2.232,15.143-1.844,20.063
			c0,0-13.651-1.079-29.663-1.079s-30.421,1.079-30.421,1.079c-4.076-4.921-1.844-20.063-1.844-20.063
			S404.925,627.775,424.935,627.775z"/>
	</g>
	<g id="Hair">
		<path fill="#704812" d="M425.945,276.775c21.5,0,42.101-2,42.101-2c31.97-17.667,70.586-8,70.586-8
			c58.813,7,63.666,116.61,63.666,116.61c23.015,10.39,19.355,111.926,19.355,111.926l9.645-37.599c0,0,2.135-10.377,8.984-14.237
			c0,0-1.082-13.038-1.289-38.7l4.305-21.39c0,0-6.725-89.61-15.862-115.61c0,0-19.277-19.971-41.138-33c0,0-7.271-13-11.636-17
			c0,0-77.023-36.868-110.023-48.934c-4.807-0.934-21.193-19.066-21.193-19.066c-2,3-7.322,10-7.322,10c0.678-5-8.902-21-8.902-21
			c-8.225,17-15.484,30.066-15.484,30.066c3.291-1.934-1-19.066-1-19.066c-10.709,14-28.291,20.066-28.291,20.066
			c-33,12.066-104.364,47.934-104.364,47.934c-4.364,4-11.636,17-11.636,17c-21.86,13.029-41.138,33-41.138,33
			c-9.138,26-15.862,115.61-15.862,115.61l4.304,21.39c-0.207,25.662-1.289,41.7-1.289,41.7c6.289,4.839,8.985,11.237,8.985,11.237
			l10.644,42.599c0,0-4.644-104.536,18.356-116.926c0,0,3.667-104.944,63.666-117.61c0,0,36.668-5.333,70.587,9
			C384.697,274.775,404.445,276.775,425.945,276.775z"/>
	</g>
</g>
</svg>
